<?xml version="1.0" encoding="utf-8"?>
<!-- Generator: Adobe Illustrator 22.0.1, SVG Export Plug-In . SVG Version: 6.00 Build 0)  -->
<svg version="1.1" id="Capa_1" xmlns="http://www.w3.org/2000/svg" xmlns:xlink="http://www.w3.org/1999/xlink" x="0px" y="0px"
	 viewBox="0 0 350 166.3" style="enable-background:new 0 0 350 166.3;" xml:space="preserve">
<style type="text/css">
	.st0{opacity:0.64;fill:url(#SVGID_1_);}
</style>
<radialGradient id="SVGID_1_" cx="175.05" cy="84.5323" r="136.6023" gradientUnits="userSpaceOnUse">
	<stop  offset="0.1949" style="stop-color:#2A1000"/>
	<stop  offset="0.6821" style="stop-color:#2A1000"/>
</radialGradient>
<path class="st0" d="M235.8,44.8c-24.1,7.3-63.2-42.2-93.3-42.2S90.4,46.3,55.9,25.9C25.8,8,4.8,21.5,0.1,25v111.1v0.3
	c0,0,17,26.2,63.8,7.3c40.3-16.3,71.7-3.5,84.3-0.5c2,0.5,13,4.9,14.6,6.1c15.2,11,43.9,31.5,75.9,1.7c42.1-39.3,111.3,0,111.3,0
	v-0.4V23.9C324.4,10.6,259.6,37.6,235.8,44.8z"/>
</svg>
