<?xml version="1.0" encoding="utf-8"?>
<!-- Generator: Adobe Illustrator 22.0.1, SVG Export Plug-In . SVG Version: 6.00 Build 0)  -->
<svg version="1.1" id="Capa_1" xmlns="http://www.w3.org/2000/svg" xmlns:xlink="http://www.w3.org/1999/xlink" x="0px" y="0px"
	 viewBox="0 0 154 177.6" style="enable-background:new 0 0 154 177.6;" xml:space="preserve">
<style type="text/css">
	.st0{fill:#A20003;}
	.st1{fill:#BF4400;}
	.st2{fill:#4F210B;}
	.st3{fill:#BF5000;}
</style>
<g id="logo_2_">
	<path class="st0" d="M111.8,23.1c-0.4-2.6-1.5-5-2.6-7.4C105.7,7.6,94.6,4,86.7,8.3c-3.3,1.8-5.3,4.6-6.9,7.8
		c-0.6,1.2-1.2,1.5-2.5,0.8c-2.6-1.4-5.4-2.5-8.4-2.6c-7-0.2-13.3,4.6-15.4,11.6C51.7,32,53.9,38.2,59,41.9c1.2,0.6,2.5,1.2,3.8,1.5
		c1.4,0.3,2.8,0.3,4.2,0.6c0.6-0.1,1.2-0.1,1.8,0c0.1,0,0.1,0,0.2,0c0,0,0.1,0,0.1,0c0,0,0.1,0,0.1,0c0,0,0.1,0,0.1,0c0,0,0,0-0.1,0
		c5.4,1.1,10.7,2,15.7,4.2c0.8,0.3,1.6,0.8,2.3,1.3c1,0.7,1.1,1.7,0.9,2.7c-0.1,0.3-0.2,0.5-0.3,0.6c-0.1,0.1-0.2,0.3-0.3,0.4
		c-0.7,0.9-1.8,1.5-2.9,2c0,0-0.1,0.1-0.2,0.1c0,0,0,0,0,0c-1.3,0.7-2.4,1.2-3.3,1.9c-1.5,1-2.7,2.3-2.5,4.2
		c0.2,1.8,1.7,2.6,3.2,3.3c1,0.5,2.1,0.9,3.2,1.4c0.6,0.3,1.4,0.6,1.4,1.4c0,0.9-0.8,1.2-1.6,1.5c-1.4,0.5-2.8,1-4.2,1.5
		c0,0.2,0,0.3,0.1,0.5c2.9-0.1,5.8,0,8.5-1.3c2.2-1.1,2.5-3.2,0.8-5c-1.1-1.1-2.5-2-3.8-2.8c-0.3-0.2-0.8-0.3-0.8-0.7
		c0-0.5,0.6-0.6,0.9-0.8c1.1-0.5,2.2-0.9,3.3-1.4c0,0,0,0,0,0c1-0.6,2-1.2,2.9-1.9c1-0.7,1.8-1.6,2.7-2.3c0.4-0.3,0.7-0.6,1.1-0.9
		c0.1-0.1,0.2-0.2,0.3-0.3c4.9-4.3,9-9.2,12-14.9C111.2,33.6,112.7,28.6,111.8,23.1z M104.1,40.6C104.1,40.6,104.1,40.7,104.1,40.6
		c-0.9,1.3-1.7,2.6-2.7,3.7c-0.8,0.9-1.7,1.7-2.6,2.5c-0.1,0.1-0.3,0.3-0.4,0.4l-5.6,4.4l0,0c-0.4,0.4-0.8,0.7-1.3,1.1
		c0.7-5.1-2.6-6.8-6.4-8.1c-5.2-1.8-10.7-2.5-16.2-3.1c-2.2-0.2-4.5,0.1-6.6-1.1c-4.6-2.5-7.2-7.9-6-12.9
		c1.4-5.9,6.1-10.1,11.5-10.3c2.3-0.1,4.5,0.3,6.5,1.5c1.3,0.7,2.7,1.4,4.1,2.1c1.9,0.9,1.9,0.9,2.9-1c0.8-1.5,1.6-3,2.5-4.5
		C88,8.1,97,8.4,102.1,12.1c2.4,1.8,4.1,4,4.8,6.4c0,0,0,0,0,0c0.2,0.7,0.5,1.5,0.7,2.2C110.2,27.1,108.2,35,104.1,40.6z"/>
	<g>
		<path class="st1" d="M135.1,95.3c-1.4,4.6-3.2,9-5.3,13.3c-2.1,4.3-4.7,8.4-7.7,12.3c-3.2,3.7-6.9,7-11.2,9.5
			c-2.2,1.2-4.5,2.3-6.9,3c-0.7,0.2-1.3,0.3-1.9,0.4l-1.8,0.3c-0.6,0.1-1.2,0.2-1.8,0.3l-0.5,0.1c-0.2,0-0.4,0-0.5,0l-0.9,0
			c-4.8,0.1-9.7-0.1-14.5-0.9c-4.8-0.8-9.5-2-14.1-3.8c-9.1-3.5-17.4-9.4-23.2-17.4l-2-3.1L41,106c-1.1-2.1-2.1-4.3-3.2-6.4
			c-2.1-4.3-4.1-8.5-6.5-12.6c-1.2-2-2.4-4-3.8-5.8c-1.4-1.8-2.9-3.4-4.7-4.4c-1.8-1-3.7-1.3-5.7-0.8c-2,0.5-4,1.4-5.7,2.8
			c-1.6,1.3-3,3.1-3.8,5c-0.8,1.9-1.1,4.1-0.8,6c0.1,0.5,0.2,1,0.4,1.4c0.2,0.4,0.4,0.9,0.7,1.3l0.4,0.6c0.1,0.2,0.3,0.3,0.5,0.5
			c0.3,0.3,0.7,0.7,1.2,1c1.8,1.3,3.9,2.4,5.9,3.6c4,2.6,8.1,5.1,11.7,8.4c0.9,0.8,1.8,1.7,2.5,2.7c0.8,1,1.4,2.1,1.8,3.3
			c0.4,1.2,0.4,2.6-0.1,3.7c-0.5,1.1-1.2,2.1-1.8,3.1c0.4-1.1,1-2.2,1.3-3.3c0.3-1.1,0.1-2.3-0.3-3.3c-0.9-2-2.7-3.6-4.6-4.9
			c-3.8-2.7-8-4.8-12.2-6.9c-1.1-0.5-2.1-1.2-3.1-1.8c-1-0.6-2.1-1.3-3.1-2c-0.5-0.4-1-0.8-1.5-1.3c-0.2-0.3-0.5-0.5-0.7-0.8
			l-0.6-0.9c-0.4-0.6-0.7-1.2-1-1.9c-0.2-0.7-0.4-1.3-0.6-2c-0.5-2.7,0-5.5,1-7.9c1-2.4,2.7-4.6,4.7-6.2c2-1.7,4.4-2.8,7-3.4
			c1.3-0.3,2.7-0.4,4.1-0.2c1.4,0.2,2.7,0.7,3.9,1.4c2.3,1.4,4.1,3.3,5.7,5.2c1.5,2,2.8,4,4,6.1c2.4,4.2,4.5,8.5,6.6,12.8
			c1,2.1,2.1,4.3,3.1,6.4l1.7,3l1.9,2.9c5.4,7.4,13.2,13,21.8,16.3c4.3,1.7,8.8,2.9,13.4,3.6c4.6,0.8,9.2,0.9,13.9,0.8l0.9,0
			c0.2,0,0.3,0,0.4,0l0.4,0c0.5-0.1,1.1-0.1,1.7-0.2l1.7-0.3c0.6-0.1,1.2-0.2,1.6-0.3c2.1-0.6,4.2-1.5,6.2-2.6
			c3.9-2.2,7.4-5.4,10.4-8.8c3.2-3.3,6.1-7.1,8.6-11c1.3-2,2.5-4,3.6-6.1C133,99.5,134.1,97.4,135.1,95.3z"/>
	</g>
	<g>
		<path class="st1" d="M49.5,124.4c0.3,4.2,2.1,8.1,4.7,11c2.2,3.2,5.5,5.6,9.1,7.3c3.6,1.7,7.6,2.9,11.6,3.6
			c4,0.7,8.2,1.1,12.3,1.3c2.1,0,4.1,0.1,6.2,0l1.6,0c0.3,0,0.5,0,0.7,0l0.8-0.1c1-0.1,2-0.2,3.1-0.3c4.1-0.6,8.1-1.4,12-2.8
			c3.8-1.4,7.5-3.2,10.1-6c1.5-1.2,2.7-2.7,3.5-4.5c0.8-1.8,1.1-3.9,1.1-6c0.7,2,1,4.2,0.6,6.5c-0.3,2.2-1.4,4.4-2.8,6.3
			c-3.2,3.4-7.3,5.3-11.4,6.8c-4.1,1.4-8.3,2.3-12.6,2.9c-1.1,0.1-2.1,0.3-3.2,0.4l-0.8,0.1c-0.3,0-0.6,0-0.8,0l-1.6,0
			c-2.1,0.1-4.3,0-6.4,0c-4.3-0.2-8.5-0.5-12.8-1.3c-4.2-0.8-8.4-2-12.4-3.9c-2-1-3.9-2.1-5.6-3.5c-1.8-1.4-3.4-3-4.7-4.9
			C49.3,133.2,48.4,128.5,49.5,124.4z"/>
	</g>
	<g>
		<path class="st0" d="M96.2,161.4c0,0-0.1,0-0.3,0c-0.1,0-0.2,0.2-0.4,0.6l0,0.1c-0.2,0.6-0.4,1.2-0.6,1.7
			c-0.2,0.5-0.5,1.1-0.9,1.6l0-0.4c0-0.8-0.1-1.6-0.2-2.6c-0.1-0.9-0.3-1.6-0.4-2.1c-0.3-0.6-0.6-0.9-1-0.9c-0.1,0-0.3,0-0.4,0.1
			c-0.3,0.1-0.4,0.3-0.5,0.6c-0.1,0.2-0.1,0.4-0.1,0.6c0,0.1,0,0.2,0,0.3c0,0.3,0,0.6,0,1c0,0.3,0,0.7-0.1,1.2
			c0,0.6-0.2,1.2-0.4,1.9c-0.2,0.5-0.4,0.8-0.6,0.9c-0.1,0.1-0.2,0.1-0.3,0.1c-0.1,0-0.2-0.1-0.3-0.2c-0.1-0.1-0.2-0.4-0.2-1
			c0-0.2,0-0.4,0-0.7c0-0.3,0-0.8,0.1-1.2c0-0.4,0-0.7,0-1c0-0.5,0-0.9,0-1.2c0-0.3-0.2-0.6-0.4-0.9c-0.2-0.2-0.4-0.3-0.7-0.4
			c-0.1,0-0.2,0-0.2,0c-0.2,0-0.4,0-0.5,0.1c-0.5,0.2-0.8,1.2-0.9,2.9c-0.1,0.3-0.2,0.7-0.3,1c-0.1,0.4-0.3,0.9-0.5,1.3
			c-0.2,0.5-0.5,0.7-0.7,0.8c0,0,0,0-0.1,0c-0.2,0-0.2-0.3-0.3-0.8c0-0.3,0-0.9,0.1-1.8c0.1-0.5,0.1-1,0.2-1.5
			c0.1-0.5,0.1-0.9,0.2-1.2c0-0.3,0.1-0.6,0.1-1.1c0.1-0.4,0.1-0.8,0.1-1.2l0-0.2c0-0.1,0-0.2,0-0.3c0-0.2,0-0.5,0-0.8
			c0-0.3-0.1-0.6-0.2-0.9c-0.1-0.3-0.4-0.5-0.7-0.6c0,0-0.1,0-0.1,0c-0.3,0-0.6,0.1-0.9,0.4c-0.1,0.1-0.2,0.4-0.3,0.7
			c-0.1,0.3-0.2,0.9-0.3,1.7c-0.1,0.4-0.1,0.8-0.1,1.1c0,0.3-0.1,0.5-0.1,0.6l0,0.2l-0.3-0.4c-0.4-0.4-0.8-0.7-1.3-0.9
			c-0.1,0-0.2-0.1-0.3-0.1c-0.4,0-0.7,0-1.1,0.2c-0.2,0.1-0.4,0.3-0.7,0.5c-0.2,0.2-0.4,0.5-0.6,0.7c-0.3,0.5-0.5,1-0.6,1.5
			c-0.1,0.3-0.2,0.6-0.3,0.9c-0.1,0.4-0.3,0.8-0.4,1.2c-0.4,0.9-0.6,1.4-0.8,1.4l0,0c-0.2,0-0.2-0.5-0.1-1.3l0-0.3
			c0-0.2,0.1-0.5,0.1-0.7c0.2-1.3,0.2-2.4,0-3.1c-0.2-0.7-0.5-1.1-0.8-1.4c-0.2-0.1-0.3-0.1-0.5-0.2c-0.3,0-0.6,0-0.9,0.1
			c-0.4,0.1-0.7,0.5-1.1,1c-0.1,0.2-0.3,0.5-0.6,0.9c-0.2,0.4-0.5,0.9-0.7,1.3c-0.1,0.2-0.2,0.3-0.2,0.4c-0.1,0.1-0.1,0.2-0.1,0.2
			l0-0.1c0,0,0-0.1,0-0.2c0-0.1,0.1-0.3,0.1-0.6c0-0.2,0.1-0.4,0.1-0.6c0.2-1.2,0.1-2-0.2-2.5c-0.2-0.3-0.4-0.4-0.8-0.5
			c0,0-0.1,0-0.1,0c-0.5,0-1,0.3-1.2,1c-0.1,0.3-0.2,0.6-0.3,1c-0.1,0.2-0.2,0.4-0.3,0.6c-0.3,0.6-0.6,1.2-0.9,1.8
			c-0.4,0.6-0.7,0.9-0.8,0.9l0,0c-0.2,0-0.2-0.4-0.1-1.1c0-0.4,0.2-1.1,0.5-2.2c0.1-0.4,0.2-0.7,0.3-1.2l0.2-0.9
			c0.1-0.6,0.3-1.1,0.4-1.5c0.1-0.4,0.2-0.8,0.2-1.2c0-0.4,0-0.8,0-1.2c0-1.3-0.3-2.3-0.8-2.9c-0.3-0.3-0.6-0.5-0.9-0.6
			c-0.3-0.1-0.7,0-1.2,0.1c-0.5,0.1-1.2,0.7-2,1.8c-0.9,1.3-1.8,2.8-2.7,4.7c-0.9,1.9-1.6,3.5-2.1,5l0,0.1c-0.1,0.3-0.1,0.6,0.1,0.7
			c0.1,0.1,0.1,0.1,0.2,0.2c0.1,0,0.2,0,0.4-0.1c0.2-0.1,0.4-0.3,0.5-0.7c0-0.1,0.1-0.2,0.2-0.4c0.1-0.2,0.2-0.4,0.3-0.7
			c0.1-0.2,0.2-0.4,0.2-0.6c0.1-0.2,0.1-0.3,0.1-0.3c0,0,0.2,0,0.5,0.1c0.3,0.1,0.7,0.1,1.1,0.2c0.4,0.1,0.9,0.2,1.2,0.2
			c0.4,0.1,0.7,0.1,0.8,0.2l0,0.7c0,0.6,0.1,1.1,0.2,1.5c0.3,0.8,0.6,1.3,1.1,1.5c0.1,0,0.2,0.1,0.2,0.1c0.4,0.1,0.8,0,1.3-0.2
			c0.5-0.3,0.9-0.7,1.4-1.4c0,0,0-0.1,0.1-0.1c0,0.1,0,0.3,0,0.4c0.1,0.5,0.2,1,0.3,1.3c0.2,0.4,0.5,0.7,0.8,0.9
			c0.1,0,0.2,0.1,0.3,0.1c0,0,0.1,0,0.2,0c0.1,0,0.2,0,0.4-0.1c0.3-0.1,0.6-0.5,0.9-1.4c0.5-1.2,0.9-2.1,1.1-2.7
			c0.3-0.6,0.5-1,0.7-1.3c0.2-0.3,0.4-0.6,0.6-0.7c0.1-0.1,0.2-0.1,0.3-0.1c0,0,0.1,0,0.1,0.1c0.1,0.1,0.1,0.4,0,0.8l0,0.1
			c-0.1,0.8-0.2,1.6-0.3,2.4c-0.1,0.5-0.1,1,0,1.6c0,0.5,0.2,1,0.5,1.4c0.3,0.3,0.6,0.5,1,0.6c0,0,0.2,0,0.4,0
			c0.2,0,0.5-0.1,0.9-0.4c0.3-0.2,0.6-0.6,0.9-1.2c0.1,0.2,0.2,0.5,0.3,0.7c0.3,0.5,0.7,0.9,1.1,1.2c0.2,0.1,0.4,0.2,0.7,0.2
			c0.3,0,0.6,0,0.8-0.1c0.2-0.1,0.5-0.3,0.7-0.5c0.3-0.2,0.5-0.5,0.6-0.7l0.3-0.4l0.1,0.3c0.1,0.3,0.2,0.5,0.4,0.7
			c0.5,0.7,1,1,1.6,1.1c0.1,0,0.3,0,0.6,0c0.4,0,0.8-0.4,1.3-1.1c0.1-0.2,0.2-0.4,0.3-0.6c0.2,0.5,0.4,1,0.8,1.5
			c0.4,0.4,0.8,0.7,1.3,0.7l0.1,0c0.4,0,0.9-0.1,1.3-0.5c0.3-0.2,0.5-0.4,0.6-0.6l0.2-0.2l0,0.3c0,0.1,0,0.2,0,0.3
			c0,0.1,0,0.2,0,0.2l0,0.2l-0.5,0.3c-0.4,0.2-0.7,0.4-0.9,0.6c-0.2,0.2-0.5,0.3-0.6,0.5c-0.2,0.2-0.4,0.5-0.6,0.7
			c-0.2,0.3-0.3,0.6-0.4,0.9c-0.1,0.2-0.1,0.5-0.1,0.7c0,0.4,0.1,0.8,0.3,1.2c0.2,0.4,0.6,0.7,1.1,0.9c0.2,0.1,0.4,0.1,0.6,0.1
			c0.3,0,0.7-0.1,1.1-0.3c0.4-0.2,0.9-0.7,1.3-1.5c0.2-0.4,0.4-0.9,0.5-1.4c0.1-0.4,0.2-0.8,0.3-1.1c0.1-0.4,0.1-0.8,0.2-1.3
			l0.1-0.6c0.7-0.8,1.2-1.5,1.6-2.4c0.4-0.8,0.8-1.7,1-2.7c0-0.1,0-0.2,0-0.2c0-0.2,0-0.3-0.1-0.4C96.4,161.4,96.3,161.4,96.2,161.4
			z M66.2,153.4c-0.1,0.8-0.2,1.6-0.3,2.3c-0.1,0.8-0.3,1.5-0.4,2.3l-0.2,0.9l-0.1,0.7l-0.2,0c-0.1,0-0.3,0-0.7-0.1
			c-0.3-0.1-0.7-0.1-1-0.2l-0.4-0.1c-0.2-0.1-0.4-0.1-0.7-0.2c-0.2-0.1-0.3-0.1-0.3-0.2c0,0,0.1-0.2,0.2-0.4
			c0.1-0.2,0.2-0.4,0.3-0.7c1.1-2.3,2-3.9,2.7-4.8c0.5-0.7,0.9-1,1-0.9c0,0,0.1,0,0.1,0C66.3,152.1,66.3,152.5,66.2,153.4z
			 M82.6,162.2c0,0.2-0.1,0.4-0.1,0.7c-0.1,0.3-0.2,0.7-0.4,1.1c-0.2,0.4-0.4,0.7-0.5,0.9c0,0.1-0.1,0.1-0.2,0.2s-0.1,0.1-0.1,0.1
			c0,0-0.1,0-0.1,0c0,0,0,0,0,0c0,0,0-0.1,0-0.2c-0.1-0.3-0.1-0.9,0-1.6c0-0.2,0-0.5,0-0.7c0-0.5,0.1-0.9,0.2-1.3
			c0.1-0.2,0.1-0.4,0.2-0.5c0.1-0.1,0.2-0.2,0.2-0.2c0.2,0,0.3,0.1,0.5,0.3c0.2,0.2,0.3,0.4,0.4,0.7C82.6,161.8,82.6,162,82.6,162.2
			z M91.6,169.1c0,0.1,0,0.3,0,0.5c0,0.2,0,0.5-0.1,0.7c0,0.2-0.1,0.4-0.1,0.6c-0.2,0.6-0.4,1-0.7,1.2c-0.1,0.1-0.3,0.1-0.4,0.1
			c-0.1,0-0.2-0.1-0.4-0.2c-0.2-0.1-0.3-0.3-0.3-0.7c0-0.1,0-0.2,0-0.3c0-0.3,0.1-0.6,0.2-0.9c0.2-0.5,0.7-0.9,1.3-1.2l0.5-0.3
			l0,0.2L91.6,169.1z"/>
		<path class="st0" d="M121.7,156.3c0-0.1,0-0.2-0.1-0.2c-0.1-0.2-0.2-0.4-0.3-0.5c-0.1-0.1-0.2-0.1-0.3-0.1c-0.1,0-0.1,0.1-0.3,0.2
			c-0.1,0.1-0.2,0.3-0.2,0.7c0,0.3,0,0.8,0.1,1.6c0.1,1,0.1,1.8,0,2.6c0,0.8-0.1,1.3-0.2,1.6c0,0.1,0,0.1-0.1,0.1c0,0,0,0-0.1,0
			c0,0-0.1-0.1-0.2-0.2c-0.1-0.1-0.2-0.4-0.4-0.7c-0.2-0.3-0.4-0.7-0.6-1.3c-0.4-0.9-0.8-1.6-1-2c-0.2-0.4-0.4-0.6-0.6-0.8
			c-0.3-0.2-0.6-0.4-1-0.4c-0.1,0-0.3,0-0.4,0c-0.2,0-0.3,0.1-0.5,0.3c-0.2,0.2-0.3,0.3-0.3,0.5c0,0.2,0,0.5,0.1,0.8
			c0.1,0.2,0.2,0.5,0.3,0.8c0,0-0.1,0.1-0.1,0.1c-0.1,0.2-0.3,0.4-0.6,0.5l-0.1-0.3c-0.2-0.6-0.6-1.1-1-1.5
			c-0.4-0.4-0.9-0.6-1.4-0.7c-0.2,0-0.4,0-0.6,0.1c0,0-0.1,0-0.3,0.1c-0.2,0-0.3,0.1-0.5,0.3c-0.1,0-0.1,0.1-0.2,0.1
			c-0.1,0-0.1,0.1-0.2,0.1c-0.4,0.1-0.7,0.3-1,0.8c-0.3,0.4-0.5,0.9-0.5,1.5c0,0.3-0.1,0.7,0,1c0,0.3,0.1,0.6,0.2,1l0,0.1
			c0.1,0.5,0.3,1,0.5,1.4c0,0,0,0,0,0c-0.1,0.1-0.1,0.2-0.2,0.3c-0.3,0.4-0.6,0.7-1,0.7c-0.1,0-0.1,0-0.2,0c-0.3,0-0.7,0-1.1-0.1
			c-0.4-0.1-0.8-0.3-1.2-0.5l-0.5-0.3l0.1-0.5c0.2-0.9,0.2-2.6,0-5.2c0-0.3-0.1-0.7-0.1-1.3c-0.1-0.6-0.2-1.2-0.4-1.8
			c-0.2-0.6-0.5-1.1-0.8-1.4c-0.2-0.2-0.5-0.3-0.9-0.3c-0.1,0-0.3,0.1-0.5,0.1c-0.3,0.1-0.5,0.4-0.5,0.8c-0.1,0.4-0.1,0.7-0.1,1.2
			c0,0.2,0,0.4,0.1,0.6c0,0.2,0.1,0.4,0.1,0.5l0,0.2c0.1,0.8,0.3,1.6,0.4,2.5c0.1,0.7,0.2,1.3,0.3,1.9c0.1,0.6,0.2,1,0.2,1.2
			l0.1,0.8c-0.1,0-0.2,0-0.3,0c-0.6,0.1-1,0.3-1.3,0.6c-0.3,0.3-0.4,0.7-0.3,1.1l0,0.1c0.1,0.4,0.2,0.8,0.5,1.2
			c0.3,0.4,0.6,0.6,1,0.8c0.2,0.1,0.4,0.1,0.6,0.1c0.2,0,0.4-0.1,0.5-0.2c0.1-0.1,0.3-0.2,0.4-0.5c0.2-0.2,0.3-0.4,0.4-0.6
			c0-0.1,0.1-0.2,0.1-0.2c0-0.1,0-0.1,0.1-0.1l0,0c0,0,0,0,0.1,0c0,0,0.1,0,0.2,0.1c0.2,0.1,0.5,0.2,0.7,0.3
			c0.3,0.1,0.6,0.2,0.8,0.2c0.4,0.1,0.8,0.1,1.2,0c0.3,0,0.7-0.2,1.2-0.4c0.4-0.2,0.8-0.6,1.2-1.2c0,0,0.1,0.1,0.1,0.1
			c0.6,0.5,1.2,0.8,1.9,0.9c0.3,0,0.5,0,0.8-0.1c0.3-0.1,0.7-0.3,1.1-0.6c0.4-0.3,0.7-0.9,0.9-1.7c0.2-0.6,0.2-1.3,0.1-2
			c0-0.2,0-0.3,0-0.4c0-0.1,0-0.2,0-0.2c0.3-0.2,0.6-0.5,0.8-0.8c0.4,0.7,0.7,1.3,1.1,1.9c0.4,0.6,0.8,1,1.2,1.4
			c0.7,0.6,1.4,0.8,2,0.6c0,0,0.2-0.1,0.5-0.2c0.3-0.1,0.6-0.6,0.8-1.6c0.1-0.7,0.1-1.7,0.1-2.9S121.8,157,121.7,156.3z
			 M103.8,165.3c0,0.1,0,0.1,0,0.2c0,0.1,0,0.2-0.1,0.3c0,0.1-0.1,0.2-0.1,0.2c0,0.1,0,0.1-0.1,0.1l0,0c-0.1,0-0.2,0-0.3-0.2
			s-0.2-0.3-0.3-0.4c0-0.1,0-0.1-0.1-0.2c0-0.1,0-0.2,0-0.2c0-0.1,0.1-0.1,0.2-0.1c0.1,0,0.2,0,0.3,0c0.1,0,0.1,0,0.2,0
			c0,0,0.1,0,0.1,0.1C103.8,165.2,103.8,165.2,103.8,165.3z M112.1,159.5c0-0.4,0.2-0.6,0.3-0.6c0,0,0.1,0,0.2,0
			c0.1,0,0.3,0.1,0.5,0.2c0.2,0.2,0.4,0.4,0.6,0.6c0.1,0.1,0.2,0.2,0.2,0.3c0.1,0.1,0.1,0.2,0.1,0.2c0,0,0,0.1,0,0.1c0,0,0,0,0,0
			c0,0,0,0-0.1,0c0,0-0.1,0-0.1,0c-0.1,0-0.2,0-0.4,0c-0.2,0-0.5,0-0.7-0.1c-0.3-0.1-0.5-0.1-0.7-0.2L112,160L112.1,159.5z
			 M114.5,162.4c0,0.3-0.1,0.6-0.2,0.9c-0.1,0.3-0.3,0.6-0.5,0.7c-0.1,0.1-0.2,0.1-0.3,0.1c-0.3,0.1-0.5-0.1-0.8-0.3
			c-0.2-0.3-0.4-0.7-0.6-1.1c-0.1-0.2-0.1-0.4-0.1-0.5c-0.1-0.3-0.1-0.5-0.1-0.7l0.4,0.1c0.6,0.1,1.1,0.2,1.7,0l0.5-0.1l0,0.2
			C114.5,161.8,114.5,162.1,114.5,162.4z"/>
		<path class="st0" d="M130,158.7c-0.5,0.2-1,0.4-1.5,0.5c-0.2,0.2-0.3,0.4-0.5,0.5c-0.1,0-0.2,0-0.3,0.1c-0.2,0-0.4-0.1-0.7-0.5
			c-0.1-0.1-0.2-0.2-0.3-0.3c-0.1-0.2-0.2-0.3-0.3-0.5c-0.1-0.2-0.2-0.3-0.2-0.4c0,0,0,0,0.1-0.1c0.1,0,0.1-0.1,0.2-0.1
			c0.8-0.5,1.2-1.2,1.3-2.1c0-0.5,0-0.9-0.1-1.3c-0.1-0.2-0.2-0.4-0.4-0.7c-0.2-0.3-0.6-0.4-1.1-0.5c-0.3,0-0.6,0-0.9,0.1
			c-0.2,0.1-0.4,0.2-0.8,0.4c-0.3,0.2-0.6,0.7-0.8,1.4c-0.2,0.7-0.2,1.4-0.1,2.1c0.1,0.5,0.2,1,0.4,1.4c0.1,0.2,0.3,0.6,0.5,1
			c0.2,0.5,0.7,0.9,1.2,1.3c0.9,0.6,1.7,0.7,2.6,0.5c0.1,0,0.1,0,0.2-0.1c0.7-0.3,1.3-0.9,1.7-1.8c0.1-0.4,0.2-0.7,0.3-1.1
			C130.1,158.7,130,158.7,130,158.7z M125.8,156.9l-0.1,0.1l-0.1-0.2c-0.1-0.3-0.1-0.7-0.1-1c0-0.3,0.1-0.6,0.2-0.7
			c0.1-0.1,0.2-0.2,0.3-0.2c0.1,0,0.2,0,0.3,0c0.1,0,0.1,0.1,0.2,0.2c0,0.1,0.1,0.2,0.1,0.4c0,0.2,0,0.3-0.1,0.5
			c-0.1,0.2-0.2,0.4-0.3,0.5c-0.1,0.1-0.1,0.1-0.2,0.2C125.9,156.8,125.8,156.9,125.8,156.9z"/>
	</g>
	<path class="st2" d="M54.7,87.5c0,0,19-10.4,58.2-4c0,0,25.4,5.8-15,5.2l-23.1,2.3C74.9,90.9,64.5,93.2,54.7,87.5z"/>
	<path class="st0" d="M145.6,136.7c-2.1-3.1-4.8-5.6-7.7-7.9c-2-1.6-4-3.3-6.9-4.4c0.7,1.7,1.8,2.4,2.7,3.2c3.5,3.5,7,7,9,11.7
		c2.6,5.9,1.5,10.3-3.5,14.3c-2.9,2.2-6,3.9-9.4,5.3c-0.4,0.2-0.8,0.3-1.1,0.5c0,0.1-0.1,0.2-0.2,0.3c-0.4,0.5-1,0.9-1.6,1.1
		c-0.4,0.1-0.8,0-1.1-0.3c-0.3,0.1-0.6,0.2-0.9,0.3c0.1,0.1,0.2,0.1,0.2,0.2c-0.2-0.2,0,0,0.1,0.1c0.1,0.1,0.1,0.1,0.2,0.2
		c0.1,0,0.1,0.1,0.2,0.1c0,0,0.1,0.1,0.2,0.1c0.1,0,0.1,0.1,0.2,0.1c1,0.6,2.1,0.9,3.3,1.1c0.3,0,0.6,0,0.9,0c0.2,0,0.3,0,0.5,0
		c0.5-0.1,1-0.3,1.5-0.4c0,0,0,0,0,0c0.2-0.1,0.5-0.2,0.8-0.3c0,0,0.1,0,0.1,0c4.2-1.8,8.2-4.1,11.4-7.6
		C149.1,149.2,149.6,142.6,145.6,136.7z"/>
	<path class="st0" d="M44.2,153.2c-6.8-5.7-9.9-12.9-7.8-21.8c0.2-0.8,0.8-1.6,0.1-2.6c-0.2,0.2-0.5,0.3-0.6,0.5
		c-3.7,6.7-3.7,17.4,2.2,23.7c4.5,4.9,10.1,8.1,16.2,10.4c0.6,0.2,1.2,0.4,1.8,0.6c0.1,0,0.2,0,0.4,0.1c0.1,0,0.1,0,0.2,0.1
		c0.4,0,0.9,0,1.3,0c1.1-0.3,2.2-0.9,2.5-2.1c0-0.1,0.1-0.3,0.2-0.4c0-0.1,0-0.2,0.1-0.3C54.8,159.7,49.1,157.3,44.2,153.2z"/>
	<path class="st3" d="M131.2,80.5c-0.5-0.7-1.2-1.3-1.9-1.8c-5.2-3.9-11.2-6.3-17.5-7.7c-6.2-1.4-12.4-2-18.7-2.2
		c0,0.2-0.1,0.4-0.2,0.5c-0.9,1.1-2.2,1.9-3.6,2.1c-0.5,0.2-1,0.3-1.5,0.4c-0.7,0.2-1.5,0.3-2.2,0.4c3.1,0,6.3,0.1,9.4,0.2
		c5.6,0.3,11.2,1.1,16.7,2c3.8,0.6,7.7,1.1,11.4,2.2c1.9,0.6,3.8,1.3,5.6,2.4c0.4,0.2,0.8,0.5,1.1,0.8c3.2,2.7,3.2,5.7-0.2,8.2
		c-2.7,2.1-5.9,3.1-9.2,3.7c-6.8,1.3-13.7,2.5-20.6,3.1c-4.6,0.4-9.3,0.6-13.9,0.6c-10.5,0-21-0.9-31.3-3.5c-3-0.8-5.9-1.8-8.6-3.2
		c-1.4-0.7-2.7-1.5-3.8-2.8c-1.3-1.4-1.2-2.8,0-4.2c1.1-1.2,2.4-2.1,3.9-2.8c4.4-2.2,9.1-3.5,13.9-4.4c5.9-1.2,11.8-1.8,17.8-2.1
		c0,0,0-0.1-0.1-0.1c-0.4,0-0.7-0.2-0.9-0.5c-0.3-0.5-0.2-1.3,0.4-1.6c1.2-0.6,2.4-1.1,3.6-1.4c0.1-0.1,0.2-0.1,0.3-0.2
		c-6.8,0.2-13.6,0.8-20.3,2.1c-5.2,1-10.4,2.2-15.3,4.5c-2.4,1.1-4.7,2.5-6.4,4.7c-2,2.6-1.9,5.6,0.2,8.1c0.8,0.9,1.7,1.8,2.7,2.4
		c3.8,2.5,8,3.9,12.3,5C64.7,98.2,75.3,99,87.3,99c5.7,0.1,12.7-0.5,19.7-1.4c7.1-0.9,13.7-3.2,19.8-6.8c1.7-1,3.2-2.1,4.5-3.6
		C133,85,133,82.7,131.2,80.5z"/>
</g>
</svg>
