<?xml version="1.0" encoding="utf-8"?>
<!-- Generator: Adobe Illustrator 22.0.1, SVG Export Plug-In . SVG Version: 6.00 Build 0)  -->
<svg version="1.1" id="Capa_1" focusable="false" xmlns="http://www.w3.org/2000/svg" xmlns:xlink="http://www.w3.org/1999/xlink"
	 x="0px" y="0px" viewBox="0 0 512 512" style="enable-background:new 0 0 512 512;" xml:space="preserve">
<style type="text/css">
	.st0{fill:#C69C4A;}
</style>
<path class="st0" d="M127.1,146.5c1.3,7.7,8,13.5,16,13.5h16.5c9.8,0,17.6-8.5,16.3-18c-3.8-28.2-16.4-54.2-36.6-74.7
	c-14.4-14.7-23.6-33.3-26.4-53.5C111.8,5.9,105,0,96.8,0H80.4C70.6,0,63,8.5,64.1,18c3.9,31.9,18,61.3,40.6,84.4
	C116.7,114.6,124.4,129.9,127.1,146.5z M239.1,146.5c1.3,7.7,8,13.5,16,13.5h16.5c9.8,0,17.6-8.5,16.3-18
	c-3.8-28.2-16.4-54.2-36.6-74.7c-14.4-14.7-23.6-33.3-26.4-53.5C223.8,5.9,217,0,208.8,0h-16.4c-9.8,0-17.5,8.5-16.3,18
	c3.9,31.9,18,61.3,40.6,84.4C228.7,114.6,236.4,129.9,239.1,146.5z M400,192H32c-17.7,0-32,14.3-32,32v192c0,53,43,96,96,96h192
	c53,0,96-43,96-96h16c61.8,0,112-50.2,112-112S461.8,192,400,192z M400,352h-16v-96h16c26.5,0,48,21.5,48,48S426.5,352,400,352z"/>
</svg>
